<svg
  xmlns="http://www.w3.org/2000/svg"
  xmlns:xlink="http://www.w3.org/1999/xlink"
  version="1.1"
  id="Capa_1"
  x="0px"
  y="0px"
  viewBox="0 0 64 44"
  style="enable-background: new 0 0 64 44"
  xml:space="preserve"
>
  <style type="text/css">
    .st0 {
      fill: none;
      stroke: #000000;
      stroke-width: 1.962;
      stroke-miterlimit: 10;
    }
    .st1 {
      fill: #c51a11;
    }
  </style>
  <path
    class="st0"
    d="M54.8,40.2H8.2c-1.9,0-3.4-1.5-3.4-3.4V7.6c0-1.8,1.5-3.4,3.4-3.4h46.6c1.9,0,3.4,1.5,3.4,3.4v29.2  C58.2,38.7,56.7,40.2,54.8,40.2z"
  />
  <path
    class="st1"
    d="M7.8,30h8.2c1.1,0,2.2-0.2,3.2-0.6c1-0.4,1.9-1,2.6-1.8c0.6-0.6,1-1.2,1.4-1.9c0-0.1,0.1-0.1,0.1-0.2l0,0  c0,0,0,0,0,0c0,0,0,0,0-0.1c0,0,0-0.1,0-0.1l0.1-0.1c0,0,0-0.1,0.1-0.1c0.1-0.1,0.1-0.3,0.2-0.5c0.3-0.9,0.5-1.8,0.5-2.7  c0-4.5-3.7-8.2-8.2-8.2c-1.6,0-3.2,0.5-4.5,1.4c-0.5,0.3-0.9,0.7-1.3,1c-0.7,0.7-1.3,1.6-1.8,2.6c0,0.1-0.1,0.2-0.1,0.3l0,0  c0,0,0,0,0,0c0,0,0,0,0,0c0,0.1,0,0.1-0.1,0.2l0,0.1c0,0,0,0.1,0,0.1c0,0,0,0.1,0,0.1l0,0.1c0,0.1,0,0.2-0.1,0.2c0,0,0,0,0,0  c0,0,0,0,0,0c-0.2,0.6-0.2,1.3-0.2,1.9v0V22V30z"
  />
  <path
    d="M37.1,16.3v0.4c0,3-2.1,5.3-5.2,5.3s-5.5-2.6-5.5-5.6c0-3.1,2.5-5.7,5.7-5.7c1.7,0,3.4,0.8,4.4,2.1l-1,0.9  c-0.8-1.1-2.1-1.8-3.4-1.8c-2.4,0-4.4,2-4.4,4.4c0,2.3,1.9,4.4,4.2,4.4c1.7,0,3.5-1.5,3.6-3.2h-2.8v-1.2L37.1,16.3L37.1,16.3z"
  />
  <path d="M39.8,21.8h-1.4V10.9h1.4V21.8z" />
  <path
    d="M43.1,12.1v3.1h3.8v1.2h-3.8v5.3h-1.4V10.9H47v1.2L43.1,12.1L43.1,12.1z"
  />
  <path d="M51.7,21.8h-1.4v-9.6h-2.6v-1.2h6.5v1.2h-2.6V21.8z" />
  <path
    d="M33.3,26.3c-0.6-0.6-1.5-0.8-2.3-0.8c-2,0-3.5,1.6-3.5,3.6c0,1.9,1.5,3.5,3.4,3.5c0.9,0,1.7-0.3,2.3-0.9v1.3  c-0.7,0.4-1.5,0.6-2.3,0.6c-2.5,0-4.5-2-4.5-4.5c0-2.6,2.1-4.6,4.6-4.6c0.8,0,1.5,0.2,2.2,0.6V26.3z"
  />
  <path
    d="M35.9,31.1l-1,2.2h-1.2l4.2-9.1l4.2,9.1h-1.2l-1-2.2H35.9z M37.9,26.6l-1.6,3.5h3.1L37.9,26.6z"
  />
  <path
    d="M48.2,33.3h-1.3l-2.6-3.7h-0.5v3.7h-1.1v-8.7H44c0.8,0,1.6,0,2.3,0.4c0.7,0.4,1.1,1.2,1.1,2.1c0,1.2-0.8,2.3-2.1,2.4  L48.2,33.3z M43.8,28.7h0.4c1.1,0,2.3-0.2,2.3-1.6c0-1.4-1.3-1.6-2.4-1.6h-0.3V28.7z"
  />
  <path
    d="M48.8,24.6h1.8c2.7,0,4.9,1.4,4.9,4.3c0,3-2.2,4.4-4.9,4.4h-1.8V24.6z M49.9,32.3h0.4c2.2,0,4.2-0.8,4.2-3.4  c0-2.5-1.9-3.4-4.2-3.4h-0.4V32.3z"
  />
</svg>
